<?xml version="1.0" standalone="no"?>
<!DOCTYPE svg PUBLIC "-//W3C//DTD SVG 20010904//EN"
 "http://www.w3.org/TR/2001/REC-SVG-20010904/DTD/svg10.dtd">
<svg version="1.0" xmlns="http://www.w3.org/2000/svg"
 width="100.000000pt" height="100.000000pt" viewBox="0 0 100.000000 100.000000"
 preserveAspectRatio="xMidYMid meet">
<metadata>
Created by potrace 1.14, written by Peter Selinger 2001-2017
</metadata>
<g transform="translate(0.000000,100.000000) scale(0.100000,-0.100000)"
fill="#000000" stroke="none">
<path d="M288 831 c-2 -47 -1 -120 0 -161 5 -117 -6 -198 -28 -205 -10 -3 -23
-19 -30 -36 -7 -17 -30 -40 -51 -52 -21 -12 -41 -28 -44 -36 -3 -7 2 -50 11
-95 29 -148 25 -141 66 -144 29 -2 43 -11 64 -40 48 -63 48 -63 121 -60 60 3
69 6 78 26 6 12 23 26 39 30 21 6 36 21 56 59 27 50 27 50 43 29 9 -12 25 -23
34 -24 10 -1 27 -3 38 -4 18 -3 20 4 23 83 3 82 4 86 31 102 35 21 43 47 25
83 -12 23 -12 30 0 49 11 16 12 25 4 33 -8 8 -8 15 1 26 10 12 8 17 -9 26 -17
9 -26 8 -44 -3 -26 -18 -52 -7 -43 17 5 12 16 15 41 12 43 -5 58 11 59 62 1
28 -3 37 -16 36 -9 -1 -19 7 -22 17 -7 20 -35 27 -35 9 0 -5 3 -10 8 -10 7 0
34 -51 29 -56 -1 -2 -20 -5 -41 -7 -34 -4 -37 -2 -32 15 4 17 1 19 -24 16 -16
-2 -27 -1 -24 3 2 4 0 10 -5 13 -5 3 -12 -1 -15 -10 -9 -24 -8 -26 24 -20 17
2 30 0 30 -5 0 -10 -3 -11 -41 -13 -21 -2 -26 2 -24 19 2 30 -24 55 -59 55
-29 1 -30 2 -13 15 16 12 23 11 50 -6 34 -20 62 -25 52 -10 -3 5 2 16 10 24 8
9 13 21 10 29 -2 7 4 24 15 38 11 14 18 18 15 10 -3 -8 6 -28 20 -45 l24 -30
1 110 0 110 -210 1 -210 1 -2 -86z m304 34 c3 3 20 -11 37 -31 18 -20 30 -38
27 -41 -6 -7 -36 22 -36 35 0 5 -11 13 -24 16 -13 3 -27 13 -30 22 -5 13 -4
14 7 6 8 -7 16 -9 19 -7z m98 -295 c0 -5 -4 -10 -10 -10 -5 0 -10 5 -10 10 0
6 5 10 10 10 6 0 10 -4 10 -10z"/>
<path d="M640 726 c0 -2 7 -9 15 -16 13 -11 14 -10 9 4 -5 14 -24 23 -24 12z"/>
</g>
</svg>
